<?xml version="1.0" standalone="no"?>
<!DOCTYPE svg PUBLIC "-//W3C//DTD SVG 20010904//EN"
 "http://www.w3.org/TR/2001/REC-SVG-20010904/DTD/svg10.dtd">
<svg version="1.0" xmlns="http://www.w3.org/2000/svg"
 width="300.000000pt" height="288.000000pt" viewBox="0 0 300.000000 288.000000"
 preserveAspectRatio="xMidYMid meet">
<metadata>
Created by potrace 1.10, written by Peter Selinger 2001-2011
</metadata>
<g transform="translate(0.000000,288.000000) scale(0.100000,-0.100000)"
fill="#f60404" stroke="none">
<path d="M1440 2580 c-14 -5 -92 -30 -175 -55 -82 -26 -161 -50 -175 -55 -21
-7 -136 -43 -355 -111 -16 -5 -73 -23 -125 -39 -101 -32 -159 -50 -228 -71
-24 -7 -47 -20 -51 -28 -5 -9 -6 -58 -3 -109 l4 -92 57 -48 c83 -71 178 -142
190 -142 7 0 11 35 11 98 0 83 3 102 18 115 10 10 23 17 28 17 13 0 143 40
181 56 17 8 38 14 47 14 9 0 24 4 34 9 9 5 51 19 92 31 41 12 82 26 90 30 9 4
31 11 50 15 19 4 41 11 50 15 19 9 205 68 243 76 15 3 30 10 33 15 7 12 40 11
62 0 9 -5 71 -26 137 -47 66 -20 129 -40 140 -45 11 -4 74 -24 140 -44 66 -20
129 -40 140 -45 11 -4 47 -15 80 -25 33 -9 76 -23 95 -31 19 -7 49 -16 66 -19
17 -3 40 -16 51 -28 18 -20 19 -31 12 -117 -15 -192 -42 -363 -71 -463 -7 -23
-8 -41 -2 -47 5 -5 58 -2 134 8 120 17 125 19 128 42 2 14 8 29 13 34 5 6 9
28 9 50 0 23 5 59 11 81 6 22 15 96 19 164 4 68 13 142 19 165 7 23 11 91 9
160 l-3 118 -40 13 c-22 7 -87 27 -145 45 -58 17 -145 45 -195 60 -125 39
-382 119 -560 175 -82 25 -160 50 -173 56 -27 11 -58 11 -92 -1z"/>
<path d="M350 1784 c0 -25 9 -101 20 -167 l21 -122 44 -40 c74 -67 296 -199
455 -269 74 -32 222 -86 239 -86 10 0 21 -3 25 -7 14 -14 209 -59 316 -73 41
-5 98 -14 125 -20 28 -6 145 -14 260 -18 209 -7 210 -7 213 -30 4 -28 -42 -88
-149 -193 -105 -102 -209 -174 -370 -255 l-67 -34 -48 26 c-269 142 -441 290
-563 481 -77 120 -78 121 -139 150 -31 14 -106 55 -165 91 -60 35 -110 62
-113 60 -7 -7 48 -152 97 -257 27 -58 78 -148 114 -201 64 -97 227 -274 315
-342 67 -52 209 -142 271 -172 29 -15 61 -31 69 -35 64 -37 145 -71 166 -71
32 0 312 144 402 207 100 69 190 144 258 215 69 73 173 207 199 258 10 19 21
37 25 40 14 10 110 220 110 242 0 7 7 22 15 32 16 22 20 62 6 70 -4 3 -50 -2
-102 -11 -136 -23 -597 -23 -769 1 -287 39 -485 95 -715 201 -165 76 -371 210
-492 319 -33 31 -64 56 -67 56 -3 0 -6 -21 -6 -46z"/>
</g>
</svg>
