<?xml version="1.0" standalone="no"?>
<!DOCTYPE svg PUBLIC "-//W3C//DTD SVG 20010904//EN"
 "http://www.w3.org/TR/2001/REC-SVG-20010904/DTD/svg10.dtd">
<svg version="1.0" xmlns="http://www.w3.org/2000/svg"
 width="100.000000pt" height="96.000000pt" viewBox="0 0 100.000000 96.000000"
 preserveAspectRatio="xMidYMid meet">
<metadata>
Created by potrace 1.10, written by Peter Selinger 2001-2011
</metadata>
<g transform="translate(0.000000,96.000000) scale(0.050000,-0.050000)"
fill="#f60404" stroke="none">
<path d="M710 1647 c-154 -49 -327 -103 -385 -119 -144 -42 -151 -126 -20
-238 l85 -73 10 76 10 75 291 95 291 95 289 -91 c159 -50 297 -98 306 -107 16
-16 -11 -274 -40 -377 -12 -46 -10 -47 75 -33 118 19 120 26 148 371 l14 171
-368 113 c-202 62 -380 117 -397 122 -16 5 -155 -31 -309 -80z"/>
<path d="M247 1120 c28 -223 440 -425 928 -454 141 -8 205 -20 205 -36 0 -35
-175 -194 -285 -258 l-94 -55 -107 61 c-106 60 -286 233 -331 316 -21 39 -241
175 -257 159 -4 -4 31 -82 76 -173 104 -208 255 -360 465 -470 l153 -80 135
70 c181 94 398 309 481 478 89 179 91 177 -91 158 -436 -48 -905 82 -1223 339
l-68 55 13 -110z"/>
</g>
</svg>
